<?xml version="1.0" encoding="UTF-8"?>
<svg id="Layer_1" data-name="Layer 1" xmlns="http://www.w3.org/2000/svg" viewBox="0 0 714.4 419.88">
  <defs>
    <style>
      .cls-1 {
        fill: #f1f9f7;
      }

      .cls-2 {
        fill: #f1f8f5;
      }

      .cls-3 {
        fill: #f6a093;
      }
    </style>
  </defs>
  <path class="cls-1" d="M.34,26.98C8.56,18.71,16.9,10.56,24.95,2.13c2.73-2.85,4.38-2.83,7.17-.02,22.51,22.72,45.16,45.3,67.79,67.9,19.57,19.54,39.12,39.09,58.83,58.48,2.96,2.92,3.59,4.5,.26,7.81-42.31,42.02-84.5,84.17-126.57,126.43-3.21,3.22-4.94,3.01-7.88-.13-6.72-7.17-13.81-13.99-20.74-20.95q-4.82-4.84-.15-9.52c31.58-31.56,63.16-63.11,94.73-94.67,1.41-1.41,2.73-2.91,4.1-4.37,.31-2.45-1.87-3.31-3.16-4.6C67.28,96.35,35.16,64.28,3.12,32.13c-1.34-1.35-4.07-2.26-2.78-5.15Z"/>
  <path class="cls-1" d="M265.98,296.82c-28.64,0-57.28-.13-85.92,.12-5.16,.04-6.55-1.55-6.41-6.53,.33-11.65,.22-23.31,.04-34.96-.06-3.82,1.1-5.28,5.11-5.27,58.11,.1,116.22,.1,174.34,0,4.15,0,5.5,1.42,5.43,5.51-.2,11.65-.27,23.31,.03,34.96,.12,4.79-1.37,6.3-6.2,6.27-28.8-.19-57.61-.1-86.42-.1Z"/>
  <path class="cls-1" d="M396.3,395.21c0-6.65,.12-13.31-.05-19.96-.09-3.28,1.14-4.48,4.36-4.27,5.79,.39,11.64-.66,17.39,.71,5.99,1.43,9.46,4.9,10.26,10.17,.86,5.63-1.59,11.34-6.95,13.67-4.37,1.9-3.28,3.69-1.23,6.42,3.59,4.78,6.97,9.73,10.53,14.54,1.72,2.33,1.08,3.19-1.61,3.24-2.69,.05-4.76-.86-6.33-3.19-3.16-4.68-6.62-9.17-9.73-13.89-1.83-2.77-4-4.57-7.4-3.72-3.69,.92-1.9,4.1-2.08,6.27-.3,3.63-.17,7.31-.07,10.97,.07,2.6-1.15,3.52-3.61,3.57-2.58,.05-3.54-1.08-3.51-3.59,.08-6.98,.03-13.97,.03-20.96Z"/>
  <path class="cls-1" d="M324.75,371.67c-5.41,6.01-10.21,11.69-15.41,16.98-3.35,3.41-4.45,5.74-.35,9.77,5.55,5.46,10.16,11.88,15.16,17.91,.61,.74,1.73,1.44,1.29,2.49-.56,1.33-2.01,.84-3.12,.92-2.33,.17-4.08-.75-5.62-2.59-4.27-5.11-8.68-10.11-13.07-15.12-1.2-1.37-2.35-2.88-3.81-3.92-3.15-2.24-5.27-1.11-5.36,2.79-.1,4.83-.07,9.66-.02,14.49,.02,2.38-.23,4.28-3.35,4.36-3.42,.09-3.64-1.95-3.63-4.55,.05-13.33,.04-26.66,.01-39.99,0-2.33,.04-4.21,3.31-4.26,3.45-.05,3.72,1.84,3.67,4.45-.08,4-.09,8,.02,12,.04,1.54-.75,3.63,1.4,4.33,1.76,.58,3.2-.57,4.37-1.83,4.62-5.03,9.4-9.93,13.75-15.18,2.68-3.23,5.63-4.44,10.76-3.04Z"/>
  <path class="cls-1" d="M497.37,419.68c-2.91,.25-4.26-1.76-4.67-4.15-1.48-8.48-6.64-11.02-14.54-9.5-.16,.03-.33,0-.5,0-12.3,.3-8.92-1.98-13.69,9.26-.45,1.07-.77,2.29-1.5,3.12-1.51,1.72-3.71,1.77-5.53,.94-2.05-.93-.56-2.66-.08-3.88,5.4-13.63,10.91-27.2,16.29-40.84,.97-2.45,2.21-3.71,5.08-3.73,2.85-.01,4.14,1.16,5.12,3.63,5.45,13.78,10.98,27.53,16.56,41.26,1.09,2.67,.98,4.23-2.53,3.87Z"/>
  <path class="cls-2" d="M361.67,395.54c0,6.65-.03,13.31,.02,19.96,.02,2.39-.21,4.24-3.36,4.27-3.29,.03-3.78-1.76-3.77-4.46,.06-13.48,.06-26.95,0-40.43-.01-2.63,.69-3.95,3.65-3.94,3.11,0,3.51,1.66,3.49,4.13-.06,6.82-.02,13.64-.02,20.46Z"/>
  <path class="cls-3" d="M494.19,148.65c0-43.81,0-87.62,0-131.43q0-7.19,7.41-7.2c8.16,0,16.33,.2,24.48-.08,4.16-.14,5.4,1.24,5.38,5.38-.14,36.31-.08,72.63-.08,108.94q0,7.6,7.67,7.6c2.67,0,5.33,.02,8-.01,7.98-.09,14.28-3.34,19.56-9.39,20.8-23.84,41.78-47.52,62.72-71.24,9.92-11.24,19.91-22.41,29.83-33.64,4.6-5.21,10.36-7.59,17.25-7.55,8.83,.05,17.66-.02,26.49,.02,1.26,0,2.97-.62,3.68,.7,.78,1.47-.91,2.3-1.73,3.23-20.16,22.85-40.33,45.69-60.54,68.5-14.58,16.45-29.23,32.84-43.79,49.31-2.9,3.28-6.25,5.96-9.8,8.45-1.17,.82-3.16,1.85-.5,3.09,10.95,5.13,17.03,15.26,24.38,23.95,32.59,38.5,64.91,77.23,97.3,115.9,1.01,1.21,3.15,2.32,2.29,4.02-.82,1.6-3.04,.72-4.61,.69-10.65-.24-21.31,.66-31.94-.56-4.3-.49-7.42-2.64-10.12-5.76-30.08-34.73-60.61-69.09-90-104.39-10.18-12.23-21.21-18.06-36.98-16.5-10.16,1.01-9.12-.98-9.13,9.16-.03,37.31-.09,74.62,.08,111.94,.02,4.68-1.06,6.49-6.05,6.26-8.48-.4-17-.37-25.48,0-4.71,.2-5.87-1.45-5.86-5.96,.15-44.47,.09-88.95,.09-133.42Z"/>
</svg>