<svg version="1.1" id="Layer_1" xmlns="http://www.w3.org/2000/svg" xmlns:xlink="http://www.w3.org/1999/xlink" x="0px" y="0px"
	 width="100%" viewBox="0 0 1080 1080" enable-background="new 0 0 1080 1080" xml:space="preserve">
<path fill="#F7A194" opacity="1.000000" stroke="none" 
	d="
M523.000000,1081.000000 
	C348.686737,1081.000000 174.873459,1081.000000 1.060182,1081.000000 
	C1.040126,1080.853394 1.002480,1080.706787 1.002479,1080.560181 
	C1.000007,720.768372 1.000000,360.976593 1.000000,1.092402 
	C360.896820,1.092402 720.793701,1.092402 1080.845215,1.092402 
	C1080.845215,360.999939 1080.845215,720.999939 1080.845215,1081.000000 
	C895.122742,1081.000000 709.311340,1081.000000 523.000000,1081.000000 
M911.467163,670.722595 
	C912.799927,670.722717 914.132751,670.723267 915.465515,670.723022 
	C923.675293,670.721313 923.677673,670.721252 923.677734,662.722412 
	C923.678223,549.592407 923.679993,436.462402 923.664062,323.332397 
	C923.663757,321.051788 923.454651,318.771179 923.341736,316.467163 
	C805.037048,316.467163 687.203674,316.467163 568.998352,316.467163 
	C568.998352,318.916016 568.998352,320.900116 568.998352,322.884247 
	C568.998352,436.514069 568.998108,550.143921 568.998901,663.773743 
	C568.998901,670.716797 569.002686,670.722168 576.086548,670.722229 
	C687.550415,670.722961 799.014282,670.722168 911.467163,670.722595 
M225.500000,382.000000 
	C214.069778,370.570496 202.684937,359.094604 191.134033,347.788391 
	C190.064255,346.741272 187.048691,345.850403 186.437485,346.440765 
	C177.030197,355.527405 167.871979,364.871918 157.597076,375.223206 
	C192.320740,409.946228 226.796707,444.421570 261.862305,479.486481 
	C227.928436,513.487976 193.496094,547.988892 159.673019,581.879395 
	C169.521469,591.639832 179.252090,601.283447 188.237991,610.189026 
	C232.062836,566.258423 276.466583,521.747498 319.589661,478.520355 
	C288.775696,446.906097 257.387848,414.703064 225.500000,382.000000 
M388.500000,596.162964 
	C371.682648,596.163391 354.864441,596.253113 338.048584,596.095032 
	C334.324860,596.060059 333.138000,597.286621 333.192078,600.978760 
	C333.372528,613.297729 333.371887,625.622681 333.191620,637.941650 
	C333.138092,641.598206 334.238800,642.849670 338.001495,642.843384 
	C396.445770,642.746094 454.890411,642.736755 513.334595,642.854492 
	C517.677307,642.863220 518.672974,641.161438 518.612671,637.241760 
	C518.436035,625.755432 518.559326,614.264526 518.547058,602.775452 
	C518.540039,596.182617 518.524231,596.166321 511.883728,596.165466 
	C471.089142,596.160400 430.294586,596.163269 388.500000,596.162964 
M572.927124,749.558960 
	C575.898376,753.776062 579.051147,757.879211 581.787720,762.243469 
	C584.327820,766.294434 587.502075,766.416443 591.892639,764.842712 
	C586.786133,757.591858 581.956299,750.734009 577.034302,743.745178 
	C578.949463,742.766235 580.349609,742.199097 581.591736,741.389587 
	C586.536804,738.166443 588.689636,733.601074 587.850769,727.720459 
	C587.072021,722.261658 583.566956,718.454834 578.558228,717.895447 
	C571.105774,717.063171 563.491577,717.679749 555.442444,717.679749 
	C555.442444,732.800903 555.361267,747.759033 555.619080,762.711304 
	C555.636902,763.742798 558.118958,765.374817 559.574219,765.518188 
	C560.587341,765.618042 562.679138,763.721924 562.776489,762.587646 
	C563.159668,758.123596 562.889404,753.607239 562.967163,749.112183 
	C563.038879,744.964233 566.066956,743.327332 569.487732,745.656860 
	C570.686584,746.473328 571.515991,747.832336 572.927124,749.558960 
M470.356201,746.127380 
	C468.587250,743.966919 466.818298,741.806458 464.972137,739.551636 
	C471.445740,732.173340 477.683380,725.063965 484.107544,717.742004 
	C478.393250,715.705200 475.307800,718.113464 472.426025,721.529968 
	C468.350555,726.361694 464.148743,731.096497 459.792450,735.674377 
	C458.781433,736.736816 456.928436,736.997925 455.462860,737.627747 
	C454.972961,736.331360 454.126953,735.052856 454.060455,733.735107 
	C453.867767,729.915222 454.010223,726.079224 453.980469,722.249939 
	C453.936127,716.548035 453.339417,716.152832 447.035828,717.982178 
	C447.035828,732.796753 446.967590,747.753113 447.185181,762.705261 
	C447.200134,763.732300 449.365509,765.533691 450.506531,765.514709 
	C451.674683,765.495178 453.736816,763.738098 453.808105,762.637878 
	C454.162659,757.165588 454.023987,751.658875 453.989563,746.164734 
	C453.968872,742.866516 455.828613,742.510193 458.220764,743.579224 
	C459.525085,744.162109 460.691986,745.265320 461.652954,746.367432 
	C466.245239,751.634155 470.897064,756.861450 475.224854,762.341858 
	C478.034363,765.899597 481.253967,766.394653 486.034729,765.024536 
	C480.717255,758.595154 475.777496,752.622498 470.356201,746.127380 
M639.429077,752.020630 
	C650.134766,752.143433 648.027771,750.901001 651.410950,760.025635 
	C651.526611,760.337769 651.700867,760.631470 651.789917,760.949890 
	C653.020752,765.349915 655.761169,766.779053 660.276428,765.172974 
	C660.201172,764.517883 660.262512,763.838196 660.037659,763.272217 
	C654.259216,748.726990 648.546387,734.153564 642.493652,719.722839 
	C641.915649,718.344666 639.132019,717.089417 637.463928,717.197021 
	C635.809265,717.303955 633.500122,718.857788 632.811890,720.380066 
	C629.521484,727.658386 626.650208,735.128052 623.695801,742.555847 
	C620.763428,749.928223 617.909546,757.331787 614.928650,764.958496 
	C619.285217,766.377319 622.059509,766.153748 623.716370,761.697021 
	C627.333435,751.967163 627.476685,752.020447 637.962219,752.020813 
	C638.128845,752.020813 638.295471,752.020691 639.429077,752.020630 
M514.968323,717.419739 
	C514.680481,719.011902 514.151489,720.602783 514.143005,722.196411 
	C514.074890,735.026306 514.100403,747.856812 514.108765,760.687073 
	C514.110352,763.154480 513.567078,765.760681 517.592224,765.818359 
	C521.618347,765.875977 521.696228,763.513306 521.686523,760.617249 
	C521.644043,747.953735 521.476624,735.285522 521.769409,722.628662 
	C521.878540,717.914246 520.380005,716.145630 514.968323,717.419739 
z"/>
<path fill="#F2FAF7" opacity="1.000000" stroke="none" 
	d="
M910.972656,670.722168 
	C799.014282,670.722168 687.550415,670.722961 576.086548,670.722229 
	C569.002686,670.722168 568.998901,670.716797 568.998901,663.773743 
	C568.998108,550.143921 568.998352,436.514069 568.998352,322.884247 
	C568.998352,320.900116 568.998352,318.916016 568.998352,316.467163 
	C687.203674,316.467163 805.037048,316.467163 923.341736,316.467163 
	C923.454651,318.771179 923.663757,321.051788 923.664062,323.332397 
	C923.679993,436.462402 923.678223,549.592407 923.677734,662.722412 
	C923.677673,670.721252 923.675293,670.721313 915.465515,670.723022 
	C914.132751,670.723267 912.799927,670.722717 910.972656,670.722168 
M653.757629,398.500000 
	C653.758057,474.475922 653.757996,550.451843 653.759766,626.427795 
	C653.759949,633.873047 653.765442,633.874268 661.431458,633.875732 
	C669.262329,633.877258 677.107239,633.593384 684.919006,633.979736 
	C689.778931,634.220093 691.093628,632.636841 691.069763,627.826233 
	C690.883118,590.172180 690.966553,552.516846 690.966980,514.861877 
	C690.966980,513.528931 691.059143,512.189209 690.955933,510.864502 
	C690.722351,507.866577 692.015015,506.637909 695.032349,506.746857 
	C699.025879,506.891052 703.056519,507.086853 707.021973,506.723755 
	C718.470642,505.675385 726.591187,510.781036 733.673035,519.345703 
	C745.659851,533.842468 758.204468,547.878540 770.538086,562.087891 
	C788.765869,583.087891 807.268860,603.857239 825.094666,625.192749 
	C830.263062,631.378723 835.983704,633.958191 843.582764,633.888123 
	C852.245911,633.808228 860.910583,633.893066 869.574402,633.854919 
	C870.973572,633.848755 872.371582,633.575806 874.737122,633.322754 
	C873.174438,631.286499 872.249451,629.983887 871.226807,628.763062 
	C845.887146,598.510925 820.889038,567.962524 795.053711,538.139526 
	C780.133118,520.916016 767.941040,501.072784 749.657471,488.487396 
	C789.795593,445.887390 827.499084,400.765961 866.659729,356.596436 
	C855.930298,355.941010 845.521973,355.918732 835.113831,355.949280 
	C828.778931,355.967865 823.428589,358.283173 819.186279,363.037292 
	C811.424133,371.735748 803.629272,380.405426 795.915588,389.146637 
	C772.553345,415.620880 749.151611,442.060822 725.935059,468.662323 
	C720.588806,474.787964 714.087280,477.570038 706.204651,477.744843 
	C703.706543,477.800232 701.206482,477.769012 698.707275,477.767975 
	C690.974304,477.764740 690.968323,477.762939 690.967773,470.246460 
	C690.965210,433.924438 690.912842,397.602203 691.040894,361.280640 
	C691.055115,357.246979 690.016235,355.677002 685.746460,355.813629 
	C676.758484,356.101379 667.749512,356.083923 658.760132,355.818634 
	C654.716492,355.699280 653.630920,357.178528 653.690002,361.012421 
	C653.877441,373.172394 653.757874,385.337128 653.757629,398.500000 
z"/>
<path fill="#F2F9F7" opacity="1.000000" stroke="none" 
	d="
M225.750000,382.250000 
	C257.387848,414.703064 288.775696,446.906097 319.589661,478.520355 
	C276.466583,521.747498 232.062836,566.258423 188.237991,610.189026 
	C179.252090,601.283447 169.521469,591.639832 159.673019,581.879395 
	C193.496094,547.988892 227.928436,513.487976 261.862305,479.486481 
	C226.796707,444.421570 192.320740,409.946228 157.597076,375.223206 
	C167.871979,364.871918 177.030197,355.527405 186.437485,346.440765 
	C187.048691,345.850403 190.064255,346.741272 191.134033,347.788391 
	C202.684937,359.094604 214.069778,370.570496 225.750000,382.250000 
z"/>
<path fill="#F2F8F6" opacity="1.000000" stroke="none" 
	d="
M389.000000,596.163208 
	C430.294586,596.163269 471.089142,596.160400 511.883728,596.165466 
	C518.524231,596.166321 518.540039,596.182617 518.547058,602.775452 
	C518.559326,614.264526 518.436035,625.755432 518.612671,637.241760 
	C518.672974,641.161438 517.677307,642.863220 513.334595,642.854492 
	C454.890411,642.736755 396.445770,642.746094 338.001495,642.843384 
	C334.238800,642.849670 333.138092,641.598206 333.191620,637.941650 
	C333.371887,625.622681 333.372528,613.297729 333.192078,600.978760 
	C333.138000,597.286621 334.324860,596.060059 338.048584,596.095032 
	C354.864441,596.253113 371.682648,596.163391 389.000000,596.163208 
z"/>
<path fill="#F2F6F4" opacity="1.000000" stroke="none" 
	d="
M572.720581,749.251282 
	C571.515991,747.832336 570.686584,746.473328 569.487732,745.656860 
	C566.066956,743.327332 563.038879,744.964233 562.967163,749.112183 
	C562.889404,753.607239 563.159668,758.123596 562.776489,762.587646 
	C562.679138,763.721924 560.587341,765.618042 559.574219,765.518188 
	C558.118958,765.374817 555.636902,763.742798 555.619080,762.711304 
	C555.361267,747.759033 555.442444,732.800903 555.442444,717.679749 
	C563.491577,717.679749 571.105774,717.063171 578.558228,717.895447 
	C583.566956,718.454834 587.072021,722.261658 587.850769,727.720459 
	C588.689636,733.601074 586.536804,738.166443 581.591736,741.389587 
	C580.349609,742.199097 578.949463,742.766235 577.034302,743.745178 
	C581.956299,750.734009 586.786133,757.591858 591.892639,764.842712 
	C587.502075,766.416443 584.327820,766.294434 581.787720,762.243469 
	C579.051147,757.879211 575.898376,753.776062 572.720581,749.251282 
M562.943176,728.598083 
	C562.943176,730.426331 563.163391,732.286926 562.901062,734.076721 
	C562.178040,739.009583 564.261353,740.435852 569.014893,740.055359 
	C576.853882,739.427856 581.243774,736.104370 581.006775,730.271484 
	C580.797729,725.122681 576.393066,722.356873 568.787659,721.939514 
	C564.366089,721.696777 562.118469,722.895569 562.943176,728.598083 
z"/>
<path fill="#F2F5F3" opacity="1.000000" stroke="none" 
	d="
M470.596985,746.388550 
	C475.777496,752.622498 480.717255,758.595154 486.034729,765.024536 
	C481.253967,766.394653 478.034363,765.899597 475.224854,762.341858 
	C470.897064,756.861450 466.245239,751.634155 461.652954,746.367432 
	C460.691986,745.265320 459.525085,744.162109 458.220764,743.579224 
	C455.828613,742.510193 453.968872,742.866516 453.989563,746.164734 
	C454.023987,751.658875 454.162659,757.165588 453.808105,762.637878 
	C453.736816,763.738098 451.674683,765.495178 450.506531,765.514709 
	C449.365509,765.533691 447.200134,763.732300 447.185181,762.705261 
	C446.967590,747.753113 447.035828,732.796753 447.035828,717.982178 
	C453.339417,716.152832 453.936127,716.548035 453.980469,722.249939 
	C454.010223,726.079224 453.867767,729.915222 454.060455,733.735107 
	C454.126953,735.052856 454.972961,736.331360 455.462830,737.627747 
	C456.928436,736.997925 458.781433,736.736816 459.792450,735.674377 
	C464.148743,731.096497 468.350555,726.361694 472.426025,721.529968 
	C475.307800,718.113464 478.393250,715.705200 484.107544,717.742004 
	C477.683380,725.063965 471.445740,732.173340 464.972137,739.551636 
	C466.818298,741.806458 468.587250,743.966919 470.596985,746.388550 
z"/>
<path fill="#F2F5F3" opacity="1.000000" stroke="none" 
	d="
M638.945557,752.020630 
	C638.295471,752.020691 638.128845,752.020813 637.962219,752.020813 
	C627.476685,752.020447 627.333435,751.967163 623.716370,761.697021 
	C622.059509,766.153748 619.285217,766.377319 614.928650,764.958496 
	C617.909546,757.331787 620.763428,749.928223 623.695801,742.555847 
	C626.650208,735.128052 629.521484,727.658386 632.811890,720.380066 
	C633.500122,718.857788 635.809265,717.303955 637.463928,717.197021 
	C639.132019,717.089417 641.915649,718.344666 642.493652,719.722839 
	C648.546387,734.153564 654.259216,748.726990 660.037659,763.272217 
	C660.262512,763.838196 660.201172,764.517883 660.276428,765.172974 
	C655.761169,766.779053 653.020752,765.349915 651.789917,760.949890 
	C651.700867,760.631470 651.526611,760.337769 651.410950,760.025635 
	C648.027771,750.901001 650.134766,752.143433 638.945557,752.020630 
M642.093872,747.773865 
	C643.937988,747.559631 646.795654,748.163818 645.594055,744.800964 
	C643.387939,738.627197 640.855835,732.569885 638.459656,726.463989 
	C638.027283,726.452759 637.594910,726.441467 637.162537,726.430176 
	C634.580933,733.169922 631.999329,739.909668 628.985962,747.776550 
	C634.004944,747.776550 637.601807,747.776550 642.093872,747.773865 
z"/>
<path fill="#F2F6F3" opacity="1.000000" stroke="none" 
	d="
M515.379456,717.263306 
	C520.380005,716.145630 521.878540,717.914246 521.769409,722.628662 
	C521.476624,735.285522 521.644043,747.953735 521.686523,760.617249 
	C521.696228,763.513306 521.618347,765.875977 517.592224,765.818359 
	C513.567078,765.760681 514.110352,763.154480 514.108765,760.687073 
	C514.100403,747.856812 514.074890,735.026306 514.143005,722.196411 
	C514.151489,720.602783 514.680481,719.011902 515.379456,717.263306 
z"/>
<path fill="#F7A295" opacity="1.000000" stroke="none" 
	d="
M653.757324,398.000000 
	C653.757874,385.337128 653.877441,373.172394 653.690002,361.012421 
	C653.630920,357.178528 654.716492,355.699280 658.760132,355.818634 
	C667.749512,356.083923 676.758484,356.101379 685.746460,355.813629 
	C690.016235,355.677002 691.055115,357.246979 691.040894,361.280640 
	C690.912842,397.602203 690.965210,433.924438 690.967773,470.246460 
	C690.968323,477.762939 690.974304,477.764740 698.707275,477.767975 
	C701.206482,477.769012 703.706543,477.800232 706.204651,477.744843 
	C714.087280,477.570038 720.588806,474.787964 725.935059,468.662323 
	C749.151611,442.060822 772.553345,415.620880 795.915588,389.146637 
	C803.629272,380.405426 811.424133,371.735748 819.186279,363.037292 
	C823.428589,358.283173 828.778931,355.967865 835.113831,355.949280 
	C845.521973,355.918732 855.930298,355.941010 866.659729,356.596436 
	C827.499084,400.765961 789.795593,445.887390 749.657471,488.487396 
	C767.941040,501.072784 780.133118,520.916016 795.053711,538.139526 
	C820.889038,567.962524 845.887146,598.510925 871.226807,628.763062 
	C872.249451,629.983887 873.174438,631.286499 874.737122,633.322754 
	C872.371582,633.575806 870.973572,633.848755 869.574402,633.854919 
	C860.910583,633.893066 852.245911,633.808228 843.582764,633.888123 
	C835.983704,633.958191 830.263062,631.378723 825.094666,625.192749 
	C807.268860,603.857239 788.765869,583.087891 770.538086,562.087891 
	C758.204468,547.878540 745.659851,533.842468 733.673035,519.345703 
	C726.591187,510.781036 718.470642,505.675385 707.021973,506.723755 
	C703.056519,507.086853 699.025879,506.891052 695.032349,506.746857 
	C692.015015,506.637909 690.722351,507.866577 690.955933,510.864502 
	C691.059143,512.189209 690.966980,513.528931 690.966980,514.861877 
	C690.966553,552.516846 690.883118,590.172180 691.069763,627.826233 
	C691.093628,632.636841 689.778931,634.220093 684.919006,633.979736 
	C677.107239,633.593384 669.262329,633.877258 661.431458,633.875732 
	C653.765442,633.874268 653.759949,633.873047 653.759766,626.427795 
	C653.757996,550.451843 653.758057,474.475922 653.757324,398.000000 
z"/>
<path fill="#F7A295" opacity="1.000000" stroke="none" 
	d="
M562.943176,728.122559 
	C562.118469,722.895569 564.366089,721.696777 568.787659,721.939514 
	C576.393066,722.356873 580.797729,725.122681 581.006775,730.271484 
	C581.243774,736.104370 576.853882,739.427856 569.014893,740.055359 
	C564.261353,740.435852 562.178040,739.009583 562.901062,734.076721 
	C563.163391,732.286926 562.943176,730.426331 562.943176,728.122559 
z"/>
<path fill="#F7A89B" opacity="1.000000" stroke="none" 
	d="
M641.646240,747.775208 
	C637.601807,747.776550 634.004944,747.776550 628.985962,747.776550 
	C631.999329,739.909668 634.580933,733.169922 637.162537,726.430176 
	C637.594910,726.441467 638.027283,726.452759 638.459656,726.463989 
	C640.855835,732.569885 643.387939,738.627197 645.594055,744.800964 
	C646.795654,748.163818 643.937988,747.559631 641.646240,747.775208 
z"/>
</svg>